HIERARCHY
ROOT Hips
{
  OFFSET 267.745 86.9975 -272.335
  CHANNELS 6 Xposition Yposition Zposition Zrotation Xrotation Yrotation
  JOINT LeftUpLeg
  {
    OFFSET 8.64259 1.95398 -2.38835
    CHANNELS 3 Zrotation Xrotation Yrotation
    JOINT LeftLeg
    {
      OFFSET 43.7702 0 0
      CHANNELS 3 Zrotation Xrotation Yrotation
      JOINT LeftFoot
      {
        OFFSET 40.6238 0 0
        CHANNELS 3 Zrotation Xrotation Yrotation
        JOINT LeftToeBase
        {
          OFFSET 12.7242 0 0
          CHANNELS 3 Zrotation Xrotation Yrotation
          End Site
          {
            OFFSET 0 0 0
          }
        }
      }
    }
  }
  JOINT RightUpLeg
  {
    OFFSET -8.2249 1.95398 -2.59336
    CHANNELS 3 Zrotation Xrotation Yrotation
    JOINT RightLeg
    {
      OFFSET 43.5653 0 0
      CHANNELS 3 Zrotation Xrotation Yrotation
      JOINT RightFoot
      {
        OFFSET 40.6238 0 0
        CHANNELS 3 Zrotation Xrotation Yrotation
        JOINT RightToeBase
        {
          OFFSET 12.7242 0 0
          CHANNELS 3 Zrotation Xrotation Yrotation
          End Site
          {
            OFFSET 0 0 0
          }
        }
      }
    }
  }
  JOINT Spine
  {
    OFFSET 0.165834 0.87714 6.61349
    CHANNELS 3 Zrotation Xrotation Yrotation
    JOINT Spine1
    {
      OFFSET 7.38963 1.71661e-005 0
      CHANNELS 3 Zrotation Xrotation Yrotation
      JOINT Spine2
      {
        OFFSET 11.9445 1.14441e-005 0
        CHANNELS 3 Zrotation Xrotation Yrotation
        JOINT Spine3
        {
          OFFSET 14.7254 4.19617e-005 0
          CHANNELS 3 Zrotation Xrotation Yrotation
          JOINT Spine4
          {
            OFFSET 10.9679 0 0
            CHANNELS 3 Zrotation Xrotation Yrotation
            JOINT RightShoulder
            {
              OFFSET 2.46616 -1.6653 3.69651
              CHANNELS 3 Zrotation Xrotation Yrotation
              JOINT RightArm
              {
                OFFSET 13.0012 0 0
                CHANNELS 3 Zrotation Xrotation Yrotation
                JOINT RightForeArm
                {
                  OFFSET 28.7848 1.52588e-005 0
                  CHANNELS 3 Zrotation Xrotation Yrotation
                  JOINT RightHand
                  {
                    OFFSET 26.5688 1.52588e-005 0
                    CHANNELS 3 Zrotation Xrotation Yrotation
                    End Site
                    {
                      OFFSET 0 0 0
                    }
                  }
                }
              }
            }
            JOINT LeftShoulder
            {
              OFFSET 2.38034 -1.29275 -3.7523
              CHANNELS 3 Zrotation Xrotation Yrotation
              JOINT LeftArm
              {
                OFFSET 16.3182 6.10352e-005 0
                CHANNELS 3 Zrotation Xrotation Yrotation
                JOINT LeftForeArm
                {
                  OFFSET 27.0901 0 0
                  CHANNELS 3 Zrotation Xrotation Yrotation
                  JOINT LeftHand
                  {
                    OFFSET 24.5451 1.52588e-005 0
                    CHANNELS 3 Zrotation Xrotation Yrotation
                    End Site
                    {
                      OFFSET 0 0 0
                    }
                  }
                }
              }
            }
            JOINT Neck
            {
              OFFSET 5.0226 -0.0266342 0
              CHANNELS 3 Zrotation Xrotation Yrotation
              JOINT Head
              {
                OFFSET 6.69364 2.86102e-005 0
                CHANNELS 3 Zrotation Xrotation Yrotation
                End Site
                {
                  OFFSET 0 0 0
                }
              }
            }
          }
        }
      }
    }
  }
}
MOTION
Frames:	18
Frame Time:	0.0416667
34.9179 89.3288 -84.0524 -4.21809 75.2372 -158.014 -179.613 -5.04036 91.6017 -30.5909 27.9039 6.99894 40.9641 -10.3834 3.88128 42.7658 -1.66983 -5.09376 177.077 56.2488 90.3358 -58.0981 -12.0868 0.251825 56.5004 8.17216 19.3217 62.6346 -7.81476 2.83705 -1.16443 9.53917 -91.4928 7.75572 -2.97502 -2.79047 -3.91449 -3.09491 -2.65686 -26.4405 -1.99937 -3.55498 -6.42784 -1.99936 -3.55497 101.227 -50.056 -83.634 35.6844 -11.3272 33.0554 -4.20653 -10.9143 -29.7815 -4.92276 -0.0840228 -3.89179 -84.407 -42.8649 85.9933 2.41606 -11.0592 -35.1731 6.48287 -2.81053 -77.7228 15.6173 -0.677921 -8.444 15.8395 3.38934 -18.7137 -11.2116 6.66742 29.6275 
36.6957 89.6796 -104.693 -0.229501 79.0186 -164.755 178.041 1.03505 85.9644 -68.0909 10.0289 4.75761 45.9531 -5.91249 9.44494 23.1419 1.18185 -3.19972 171.007 48.0307 91.7109 -37.8529 -12.0591 5.97 48.9399 12.4446 24.7746 78.5258 -10.3905 5.94767 -0.947392 9.83621 -91.5308 7.15976 -2.55078 -2.90345 -4.51168 -2.67604 -2.78844 -27.0299 -1.56088 -3.5352 -7.01721 -1.56088 -3.53521 100.895 -52.9329 -84.0822 29.1302 -7.94849 22.9482 1.78456 -1.07084 -28.6197 -6.30311 -0.0790778 -4.05123 -83.742 -46.9666 87.5759 -0.939544 -2.05049 -23.5509 8.19955 -1.85483 -72.194 14.8841 -0.56479 -7.49462 20.0077 3.33213 -16.1191 -14.5448 5.81558 27.0478 
38.6549 87.551 -124.641 10.1944 84.7775 -171.734 179.885 21.0086 90.3831 -112.092 10.0923 2.66451 47.1157 -2.91859 15.6133 30.0373 0.524132 -6.01153 167.919 34.7956 97.1789 -50.0002 -11.464 7.50231 61.9562 6.18644 18.2577 45.1979 -3.56392 6.89022 -0.298512 10.2967 -92.086 6.23421 -1.47778 -4.0516 -5.44201 -1.65451 -3.9828 -27.9268 -0.193085 -4.30796 -7.9141 -0.193082 -4.30796 102.298 -55.9607 -81.9775 18.9711 -5.72551 0.627987 5.54515 5.32982 -29.6078 -6.02905 -0.00640438 -5.52268 -84.8647 -52.7742 86.548 -6.95352 10.4317 -14.3336 7.98578 15.0869 -37.5663 7.47698 -0.653912 -10.7517 22.9918 2.91396 -16.1954 -16.1518 5.35142 28.7245 
40.054 86.4151 -145.268 57.7824 82.2576 142.693 175.779 50.8057 96.8179 -120.621 11.4009 2.7637 51.6069 0.059871 17.1227 38.3948 -0.959362 -3.63648 174.955 21.8147 98.6964 -52.1122 -17.0009 3.80577 74.1226 -3.47868 8.28481 56.3162 -5.53622 8.04349 0.369109 9.85425 -91.953 7.13662 -0.101612 -3.84539 -4.54019 -0.270606 -3.83721 -27.0306 1.05789 -3.69861 -7.01792 1.0579 -3.69861 101.406 -54.1832 -83.2913 16.7334 -5.10711 -18.4476 0.577564 0.899036 -43.9199 -5.09507 -0.0451138 -4.7042 -84.7651 -54.4779 86.8932 -17.3972 9.4726 3.68082 -1.62731 39.6813 -13.3002 6.7135 -0.495757 -9.51475 23.3363 2.50869 -20.8739 -16.5937 5.92277 33.9967 
40.1556 89.1805 -168.231 49.8247 79.0567 140.933 179.877 63.3168 90.3223 -87.5056 9.29536 2.28544 53.5023 -0.640525 13.4731 43.4619 -1.67021 -1.83235 175.074 -0.424287 89.5063 -30.1574 -14.1283 -1.06136 62.3104 7.95712 25.4758 59.9506 -5.65055 11.3997 0.81821 8.79012 -90.5653 9.32883 1.37748 -1.2446 -2.34174 1.32135 -1.30402 -24.8834 1.68797 -0.773008 -4.87073 1.68798 -0.773015 102.794 -50.2193 -81.1881 16.3706 -11.4157 -18.2376 -1.95076 5.52666 -72.4629 -4.41637 0.0344684 -6.93 -85.2353 -50.7965 85.741 -22.871 7.06103 19.2138 -6.29055 47.3075 -7.13269 5.42649 -0.483244 -10.1201 20.3662 0.492498 -12.5713 -17.5278 2.15985 19.6826 
38.9779 92.4362 -192.486 28.1993 82.5406 160.05 176.984 52.059 90.795 -40.2877 9.32374 1.47873 50.3757 -3.87016 10.2432 40.1349 -1.19994 -4.12614 172.969 -14.888 84.0431 -27.6614 -17.5905 -2.29301 42.0158 13.5441 20.2208 36.088 -1.78566 -1.05131 1.0019 8.46634 -90.2862 9.94766 1.86682 -0.720433 -1.72218 1.83331 -0.801935 -24.268 1.997 -0.125876 -4.25534 1.997 -0.125868 104.524 -48.5613 -78.4185 17.0063 -19.5845 -11.358 -8.49559 8.3403 -84.6641 -4.35085 0.137673 -10.1582 -86.135 -48.0642 83.9948 -23.8115 9.02432 18.326 -8.4193 45.4798 -5.95539 5.68559 -0.542421 -10.7788 14.8811 -1.40276 -7.86903 -16.7381 -0.570676 11.8703 
39.0155 91.6691 -214.566 56.5739 88.962 130.813 -174.16 38.2318 87.4452 -27.0074 12.2662 -2.97768 46.7536 -7.47473 8.30305 49.0741 -2.0707 -0.641029 177.339 -8.84517 85.6707 -81.1264 -21.75 -4.60395 35.3048 16.6285 15.6929 26.0791 -0.187296 7.89106 0.685574 8.93722 -90.096 9.00003 1.32452 -0.281221 -2.67042 1.31087 -0.339251 -25.2098 1.34778 0.129909 -5.19714 1.34778 0.1299 103.277 -50.6531 -80.4474 19.3062 -26.2244 -4.03619 -12.5018 7.80427 -75.7999 -4.3346 0.0380496 -6.9759 -84.7188 -51.076 86.5598 -18.5203 9.2062 4.28503 -12.3562 41.9651 -0.236961 8.41 -0.550005 -9.21161 14.5853 -0.344174 -7.18831 -18.2649 0.479402 8.90051 
38.3704 87.6209 -235.951 -116.35 81.4266 -62.3759 -171.538 29.1575 77.774 -49.6752 16.5481 -4.12594 63.4388 11.4836 28.4975 36.2505 -0.534331 -5.25167 178.904 9.13895 95.8106 -124.708 -25.51 -2.58182 32.8973 18.0222 11.57 23.7621 1.16155 1.5138 -0.328484 9.44969 -89.4271 7.98094 -0.404994 1.15661 -3.69023 -0.353693 1.1733 -26.2244 -0.733879 0.981437 -6.21177 -0.733879 0.981439 103.757 -54.2308 -79.8125 23.8591 -20.8762 3.08889 -10.1132 -0.240961 -55.3701 -8.84608 -0.0582414 -5.00955 -84.1058 -51.7934 87.555 -10.6049 9.37162 -18.743 -9.42795 33.7472 -3.74106 11.064 -0.648667 -8.8492 22.8249 0.506939 -6.15591 -24.3324 2.12296 2.74459 
37.1286 86.3569 -257.948 -109.457 74.0352 -71.1526 -175.639 10.9455 75.1528 -54.6296 23.1745 -1.19724 67.4669 20.039 37.6612 53.8308 -2.36267 3.65007 -176.012 39.1179 79.2226 -123.878 -25.6876 -3.07955 39.6445 13.8187 4.56544 38.0124 -2.16327 0.012964 -1.18771 9.35939 -89.3845 8.16494 -2.10018 1.3366 -3.50526 -2.03934 1.42774 -26.0513 -2.40476 0.643391 -6.03861 -2.40476 0.643381 103.879 -54.2146 -79.6313 26.3758 -10.8768 7.51745 -10.5181 -19.5573 -31.5292 -6.61324 -0.144595 -2.87462 -84.7368 -52.0732 86.6516 -7.11737 5.2656 -35.8286 3.08173 23.866 -21.1764 6.5866 -0.973381 -15.0997 21.7208 -0.113576 -3.40025 -24.8594 1.08771 -0.391825 
34.019 91.0934 -281.884 -106.64 68.15 -68.6747 -179.489 -5.0483 86.2715 -49.4873 21.4568 6.00023 61.1111 4.16397 15.6244 63.2686 -2.97038 4.76851 175.32 43.0036 84.9649 -79.353 -15.1216 -1.90487 47.989 9.87438 10.5127 44.6234 -4.04418 -2.27682 -1.51245 8.85508 -90.2121 9.16293 -3.11138 -0.198239 -2.5043 -3.1171 -0.0609748 -25.0663 -2.90786 -1.12496 -5.0537 -2.90785 -1.12495 105.08 -52.672 -77.7691 27.0363 -9.97585 18.0437 -8.68751 -32.9627 -21.3469 -3.88957 -0.099355 -2.57341 -83.7897 -49.5594 87.7889 -0.798219 9.86081 -38.0959 8.30754 9.12045 -43.7635 -5.39239 0.645469 -31.7568 8.2073 -3.32346 -3.70846 -11.309 -2.59674 1.8114 
31.7963 89.1535 -304.427 -106.01 68.4011 -69.5405 179.952 -17.496 92.3959 -40.7317 12.2855 4.48265 37.7225 -10.6184 -10.4102 112.857 -12.5348 -1.98477 178.308 35.9404 82.3263 -26.7607 5.59542 -0.670857 38.8595 14.1199 30.3857 24.9782 -3.26361 20.3097 -1.44523 8.19101 -90.1857 10.4947 -2.96398 -0.115081 -1.17285 -2.96616 0.0155851 -23.7329 -2.79223 -1.00125 -3.72023 -2.79224 -1.00125 105.19 -49.8286 -77.4312 27.0517 -4.77885 27.8381 -5.10279 -33.925 -15.5357 -1.64376 -0.0522105 -2.82887 -80.0822 -44.2566 93.2039 8.59369 8.22691 -29.1884 42.1582 6.032 -77.6784 -16.3855 -3.93269 -52.8983 15.192 -3.66861 1.53439 -20.8353 -2.63094 -9.40056 
31.4157 75.2489 -325.337 -89.2986 63.6847 -91.0079 171.853 -22.9963 91.4161 -45.3925 13.3105 2.59708 38.3527 -9.0104 -18.2711 128.472 -31.4781 -19.9568 -175.209 44.3468 70.3467 6.20774 58.766 -11.6378 11.8108 11.072 55.8136 -25.0561 -12.1642 44.6261 -1.63903 6.85926 -89.9464 13.1672 -3.22732 0.513527 1.5001 -3.20158 0.655196 -21.0668 -3.23228 -0.481202 -1.05413 -3.23229 -0.481197 104.35 -41.0151 -78.2805 28.5657 1.21438 36.3545 -6.12785 -34.6594 -14.8433 1.88819 0.0209746 -3.34646 -80.2995 -46.3781 93.0275 21.4461 -24.6428 -13.7829 117.137 -27.5195 -108.679 -3.45952 4.48567 -88.5653 28.0872 9.21738 30.3166 -33.1821 14.0687 -57.4786 
30.3144 61.2352 -344.732 -78.034 58.9676 -105.022 161.467 -44.4797 89.067 -14.1118 22.4904 0.393816 20.6299 -14.7026 -25.6603 118.091 -38.8086 -34.4229 -156.966 55.2652 50.9508 22.2311 61.9516 -25.5154 6.17731 9.75521 47.6588 -8.43062 -13.1725 53.5583 -1.64723 5.52158 -90.1202 15.843 -3.31359 0.288743 4.17619 -3.29768 0.434448 -18.3919 -3.24701 -0.721565 1.6207 -3.24702 -0.721576 95.2265 -37.7504 -94.9476 26.2604 9.1598 42.0711 -8.04656 -36.564 -13.9829 1.36771 0.0191584 -2.85613 -85.3551 -58.3311 86.507 67.0853 -59.8474 11.4776 71.966 -33.0018 -138.292 1.93277 -4.15613 -91.1665 23.0061 19.2983 43.5897 -16.8853 15.2285 -92.187 
28.2563 51.6322 -362.656 -72.294 53.6963 -111.661 152.064 -55.5089 86.0881 -0.0971797 44.8801 -0.0387789 14.1143 -25.864 -28.0054 114.335 -42.5115 -42.0247 -136.971 54.2966 30.34 16.3155 39.5529 -24.1378 4.99493 18.1799 45.1365 27.0217 -4.1202 44.6947 -1.94895 4.44564 -90.2599 18.0002 -3.9653 0.22225 6.3353 -3.95165 0.396819 -16.2465 -3.84847 -0.98158 3.76611 -3.84848 -0.981579 82.9369 -39.1815 -116.087 17.8763 22.907 51.3126 -19.4461 -31.6554 -31.5106 0.0617579 0.0809338 13.0039 -87.396 -56.1312 83.3646 105.962 -62.9192 46.6511 52.5571 -23.7055 -148.441 4.47113 -6.47333 -90.3759 20.8691 23.6553 44.1547 -10.9433 15.1558 -104.415 
26.2305 44.7534 -378.561 -68.9923 49.0745 -115.149 145.313 -58.1698 84.0561 0.0413885 77.4677 -0.150695 18.76 -37.3547 -21.944 115.051 -43.9202 -43.1663 -129.104 46.2129 13.601 8.69641 22.2756 -10.7158 8.5423 24.8028 38.68 51.2593 -2.53601 24.8199 -2.2351 3.59666 -90.3454 19.7066 -4.55703 0.26216 8.04352 -4.54106 0.462872 -14.5534 -4.42471 -1.1223 5.45931 -4.42471 -1.12231 75.9907 -42.2732 -125.893 10.4265 26.0415 57.0793 -51.0975 -32.3275 -73.4009 15.1091 0.0192388 90.4768 -86.9578 -53.1174 83.5348 115.473 -58.2106 56.0139 45.3856 -19.4342 -148.259 6.28549 -8.18269 -90.4905 19.7343 26.081 44.128 -8.23506 15.4077 -112.37 
24.2817 39.8258 -392.487 -67.0179 45.2967 -116.962 142.355 -59.8437 84.6294 179.712 81.6105 -179.768 22.372 -42.6375 -16.6195 113.902 -44.5348 -44.9389 -122.828 37.2489 2.59343 1.49575 14.1949 -7.35758 11.6973 31.3612 37.3381 61.3177 -5.40192 12.7244 -2.48019 2.94779 -90.3798 21.0147 -5.03993 0.381918 9.35346 -5.01823 0.603918 -13.2578 -4.92111 -1.15424 6.75488 -4.92112 -1.15424 71.4529 -45.4118 -131.061 5.23958 25.8068 60.1484 -175.995 1.61941 -122.728 52.7262 40.5315 57.5001 -87.1258 -51.2235 82.9908 116.36 -53.5587 56.6724 41.9301 -17.7891 -146.056 7.55726 -9.42153 -90.7991 18.6558 27.3844 43.7907 -5.76915 13.9383 -117.478 
22.5 36.198 -404.419 -65.8273 42.3394 -117.837 141.611 -60.9618 86.5416 179.897 72.2662 -179.891 23.8998 -43.8717 -14.2937 111.609 -44.7159 -47.2455 -123.23 29.5323 -1.53191 1.30352 12.1932 -6.1096 12.0199 34.6058 36.3801 66.0806 -7.72799 6.21228 -2.68522 2.46069 -90.3799 22.0004 -5.42599 0.542166 10.3405 -5.39684 0.781135 -12.2836 -5.33732 -1.11844 7.72908 -5.33732 -1.11843 68.0594 -48.173 -134.38 2.08626 24.7116 61.6391 149.963 6.25782 -107.272 22.6379 10.5877 43.0644 -87.5429 -49.8266 82.1326 115.46 -49.6758 55.5946 39.8516 -17.2719 -143.889 8.48436 -10.3576 -91.1613 18.0185 27.6214 43.2932 -3.78294 10.8498 -120.75 
20.9819 33.4915 -414.269 -65.1449 40.107 -118.145 141.87 -61.764 88.7867 179.934 65.7439 -179.924 25.4109 -45.79 -12.1297 109.463 -44.6808 -49.2154 -124.412 23.9128 -4.14285 1.07596 12.2795 -5.01936 12.4231 36.4673 35.7967 68.7756 -9.33031 2.42585 -2.85799 2.1021 -90.3639 22.7287 -5.74128 0.707946 11.0702 -5.70452 0.960749 -11.5653 -5.68772 -1.05604 8.44733 -5.68771 -1.05605 65.3367 -50.5139 -136.797 0.197439 23.4753 62.2849 147.595 0.383491 -96.5603 15.4133 4.4412 25.8799 -88.0639 -48.7715 81.1528 114.507 -46.4257 54.432 38.3731 -17.193 -142.135 9.18378 -11.0921 -91.5435 17.9701 27.5112 42.5374 -2.91433 8.83403 -122.925 
